<?xml version="1.0" encoding="UTF-8"?>
<svg version="1.1" xmlns="http://www.w3.org/2000/svg" width="276" height="323">
<path d="M0 0 C91.08 0 182.16 0 276 0 C276 106.59 276 213.18 276 323 C184.92 323 93.84 323 0 323 C0 216.41 0 109.82 0 0 Z " fill="#17222C" transform="translate(0,0)"/>
<path d="M0 0 C6.35971475 4.52518165 13.7572935 11.28845144 15.25 19.3125 C15.3686848 21.80613226 15.43793999 24.2736532 15.45874023 26.76806641 C15.46852402 27.51336609 15.4783078 28.25866577 15.48838806 29.02655029 C15.51825824 31.48903645 15.5397077 33.95146846 15.55859375 36.4140625 C15.56516558 37.25845257 15.5717374 38.10284264 15.57850838 38.97282028 C15.61107014 43.44524206 15.63552512 47.91764038 15.6550293 52.39013672 C15.67281247 56.07799245 15.70758838 59.76507924 15.75756836 63.45263672 C15.81801191 67.91829315 15.84853787 72.38323916 15.85820198 76.84928513 C15.86671874 78.54366709 15.88544281 80.238032 15.9149456 81.9321785 C16.07492548 91.6440461 15.88373535 99.54855316 9.25 107.3125 C4.05201774 112.38053271 -1.36600204 114.74191648 -8.625 114.75 C-16.39456983 114.56988352 -20.82292751 112.91434221 -26.5625 107.8125 C-32.80760859 100.67523305 -34.07909872 95.72838001 -33.75 86.3125 C-37.27701336 89.71510372 -40.3515675 93.22218034 -43.3125 97.125 C-43.73813232 97.68485596 -44.16376465 98.24471191 -44.60229492 98.8215332 C-45.98896451 100.6487893 -47.36957406 102.48052394 -48.75 104.3125 C-49.70306293 105.57035953 -50.65618877 106.8281714 -51.609375 108.0859375 C-56.93747873 115.13768279 -62.16346683 122.25400798 -67.3125 129.4375 C-71.64089057 135.47299704 -76.0888282 141.37750017 -80.71801758 147.18481445 C-84.53983137 151.99506447 -88.18512823 156.92212968 -91.78369141 161.90112305 C-94.7360939 165.97594064 -97.7947371 169.95463926 -100.89404297 173.91870117 C-104.12981751 178.09217781 -107.27924346 182.33024503 -110.4375 186.5625 C-111.73229861 188.29745314 -113.02784873 190.03184572 -114.32421875 191.765625 C-114.92024902 192.56291016 -115.5162793 193.36019531 -116.13037109 194.18164062 C-117.43203222 195.89416674 -118.78106564 197.57063556 -120.14453125 199.234375 C-121.93381157 201.31436349 -121.93381157 201.31436349 -122.75 204.3125 C-115.82 204.3125 -108.89 204.3125 -101.75 204.3125 C-102.80577529 208.53560117 -104.5862076 211.28319064 -107.0625 214.75 C-107.45373047 215.31009766 -107.84496094 215.87019531 -108.24804688 216.44726562 C-109.99170711 218.92540297 -111.77604044 221.34464285 -113.68359375 223.69921875 C-115.92095002 226.52869199 -117.93236592 229.46320416 -119.96240234 232.44287109 C-127.22376275 243.04321209 -134.08956589 251.96743995 -147.28125 254.9609375 C-158.53133112 256.56300601 -167.28238318 255.74123276 -176.4375 249.0625 C-183.47257874 243.28671246 -188.09440911 236.47665339 -189.0703125 227.30078125 C-189.54282153 213.99177689 -184.73914263 205.54489942 -176.75 195.3125 C-175.3819498 193.49804426 -174.02348341 191.67663665 -172.66503906 189.85498047 C-171.14971151 187.82436142 -169.62849166 185.7982903 -168.10546875 183.7734375 C-167.29795166 182.69980957 -167.29795166 182.69980957 -166.47412109 181.60449219 C-165.90516113 180.84813477 -165.33620117 180.09177734 -164.75 179.3125 C-154.23364842 165.35661054 -154.23364842 165.35661054 -143.89453125 151.26953125 C-136.9394259 141.67934044 -129.95614535 132.10556473 -122.6875 122.75 C-118.13661481 116.8849153 -113.78908455 110.88492867 -109.47827148 104.84155273 C-106.26001814 100.34389312 -102.93992161 95.94747895 -99.52905273 91.59423828 C-96.51204617 87.72475244 -93.56841487 83.80059665 -90.625 79.875 C-89.97901855 79.01390625 -89.33303711 78.1528125 -88.66748047 77.265625 C-83.79241837 70.74804749 -79.00685182 64.17006449 -74.25683594 57.56103516 C-68.77056852 49.93249468 -63.17852739 42.39128488 -57.375 35 C-54.22659764 30.97826458 -51.20268937 26.8718012 -48.1875 22.75 C-47.70845215 22.09676758 -47.2294043 21.44353516 -46.73583984 20.77050781 C-44.79290637 18.11854812 -42.85732473 15.46401726 -40.95703125 12.78125 C-31.79489142 0.00829367 -15.32703254 -7.19551528 0 0 Z " fill="#33C2E5" transform="translate(200.75,12.6875)"/>
<path d="M0 0 C7.90996868 3.64890816 12.80374487 9.11974952 16.13671875 17.125 C16.56397367 20.29637219 16.54701999 23.43477344 16.52490234 26.63110352 C16.5301593 27.57004456 16.53541626 28.5089856 16.54083252 29.47637939 C16.5539983 32.56905931 16.54530713 35.66122142 16.53515625 38.75390625 C16.53717779 40.90811766 16.5400899 43.0623284 16.54385376 45.21653748 C16.54827234 49.72637461 16.5418603 54.23603325 16.52783203 58.74584961 C16.51073029 64.52521991 16.52059074 70.30417254 16.53854942 76.08352757 C16.54939099 80.5299138 16.54593935 84.97620104 16.53816605 89.42259026 C16.53616561 91.5536396 16.53861781 93.68469794 16.54560471 95.81573677 C16.55322629 98.79349709 16.54160517 101.77058105 16.52490234 104.74829102 C16.53097504 105.62791 16.53704773 106.50752899 16.54330444 107.4138031 C16.48404726 113.11836511 15.4976628 116.2668262 11.80988789 120.73126984 C9.65612756 122.52532679 8.48330099 122.50840876 5.70277405 122.52613831 C4.79570206 122.53893326 3.88863007 122.55172821 2.95407104 122.56491089 C1.96126129 122.56355133 0.96845154 122.56219177 -0.05444336 122.56079102 C-1.10184189 122.57086685 -2.14924042 122.58094269 -3.2283783 122.59132385 C-6.69923501 122.61987856 -10.16965806 122.62568412 -13.640625 122.62890625 C-16.04814333 122.63854159 -18.45565986 122.64863362 -20.86317444 122.65916443 C-25.91297479 122.67714428 -30.96262106 122.68268348 -36.01245117 122.6809082 C-42.49065301 122.68060314 -48.9678698 122.72157484 -55.44583797 122.77322483 C-60.4189154 122.80654137 -65.39175349 122.81266723 -70.36493111 122.81107903 C-72.75362103 122.8146254 -75.14231673 122.82792994 -77.53089714 122.85107613 C-80.86887984 122.88039529 -84.20470897 122.8718793 -87.54272461 122.85375977 C-89.02890289 122.87904755 -89.02890289 122.87904755 -90.54510498 122.90484619 C-93.12482975 122.86916956 -95.36942426 122.78577142 -97.86328125 122.125 C-100.47784828 119.2583595 -101.81288008 117.61063455 -101.9453125 113.70703125 C-100.37246376 109.95377125 -98.05340391 107.00035065 -95.55078125 103.8125 C-94.45932365 102.3921666 -93.36818738 100.97158624 -92.27734375 99.55078125 C-91.7143457 98.8232666 -91.15134766 98.09575195 -90.57128906 97.34619141 C-87.31628981 93.11320353 -84.14682136 88.81566994 -80.96166992 84.5300293 C-80.49736572 83.909104 -80.03306152 83.28817871 -79.5546875 82.6484375 C-79.15451416 82.11138184 -78.75434082 81.57432617 -78.34204102 81.02099609 C-77.85405029 80.39531738 -77.36605957 79.76963867 -76.86328125 79.125 C-76.17331055 78.07441406 -75.48333984 77.02382812 -74.77246094 75.94140625 C-73.17800054 74.05190609 -72.28278264 73.23520355 -69.87413025 72.60244751 C-67.43601916 72.43061473 -65.0675518 72.44998435 -62.625 72.5390625 C-61.74423294 72.54755219 -60.86346588 72.55604187 -59.95600891 72.56478882 C-57.1530025 72.59827844 -54.3529124 72.67354546 -51.55078125 72.75 C-49.64652603 72.78010552 -47.74222555 72.80748031 -45.83789062 72.83203125 C-41.17857015 72.8980548 -36.52141946 73.00154272 -31.86328125 73.125 C-31.87438431 72.42866455 -31.88548737 71.7323291 -31.89692688 71.01489258 C-31.99747346 64.42467689 -32.07341948 57.83467794 -32.12234211 51.24386597 C-32.14834057 47.85608976 -32.18355503 44.46895188 -32.24047852 41.08154297 C-32.30134086 37.17919258 -32.32954173 33.27773953 -32.3515625 29.375 C-32.37736893 28.16948486 -32.40317535 26.96396973 -32.42976379 25.72192383 C-32.43216781 18.46141997 -31.57933575 13.75079958 -26.86328125 8.125 C-26.24324219 7.38507813 -25.62320313 6.64515625 -24.984375 5.8828125 C-24.42878906 5.34398437 -23.87320313 4.80515625 -23.30078125 4.25 C-22.74261719 3.69570312 -22.18445313 3.14140625 -21.609375 2.5703125 C-15.55039888 -2.44494737 -7.29371339 -2.22891105 0 0 Z " fill="#369DF0" transform="translate(199.86328125,143.875)"/>
<path d="M0 0 C7.28974705 2.29106336 12.04625209 8.70653418 16 15 C17.27307999 18.7391753 17.17617346 22.55008398 17.20874023 26.45556641 C17.22341591 27.57351593 17.22341591 27.57351593 17.23838806 28.71405029 C17.26825824 31.17653645 17.2897077 33.63896846 17.30859375 36.1015625 C17.31516558 36.94595257 17.3217374 37.79034264 17.32850838 38.66032028 C17.36107014 43.13274206 17.38552512 47.60514038 17.4050293 52.07763672 C17.42281247 55.76549245 17.45758838 59.45257924 17.50756836 63.14013672 C17.56801191 67.60579315 17.59853787 72.07073916 17.60820198 76.53678513 C17.61671874 78.23116709 17.63544281 79.925532 17.6649456 81.6196785 C17.82474796 91.32076928 17.64739073 99.25523413 11 107 C7.47524794 110.35690672 4.19717149 112.90012857 -0.75 113.125 C-1.4925 113.08375 -2.235 113.0425 -3 113 C-2.67 111.02 -2.34 109.04 -2 107 C-1.2575 107.020625 -0.515 107.04125 0.25 107.0625 C2.70462279 107.00671312 4.66109261 106.6930096 7 106 C7 105.34 7 104.68 7 104 C6.34 104 5.68 104 5 104 C5 103.34 5 102.68 5 102 C8.4352048 99.70986347 9.985331 99.82157027 14 100 C14.92107666 94.54684372 15.13255632 89.3092758 15.09765625 83.78515625 C15.09553383 82.50154457 15.09553383 82.50154457 15.09336853 81.19200134 C15.0878099 78.48213069 15.07526525 75.77234532 15.0625 73.0625 C15.05747965 71.21549599 15.05291768 69.36849068 15.04882812 67.52148438 C15.03785405 63.01429049 15.0206183 58.50715966 15 54 C13.515 54.495 13.515 54.495 12 55 C11.79081045 50.50242465 12.20374779 46.3834949 12.9375 41.9375 C14.07840049 34.97881617 14.59916648 28.03568315 15 21 C13.68 20.67 12.36 20.34 11 20 C10.67 18.35 10.34 16.7 10 15 C9.34 15 8.68 15 8 15 C8.33 13.35 8.66 11.7 9 10 C6.69 9.67 4.38 9.34 2 9 C2.33 8.01 2.66 7.02 3 6 C2.04701223 4.63266972 1.04625409 3.29735507 0 2 C0 1.34 0 0.68 0 0 Z " fill="#34CCD5" transform="translate(199,13)"/>
<path d="M0 0 C0 1.32 0 2.64 0 4 C-2.31 3.34 -4.62 2.68 -7 2 C-7 2.66 -7 3.32 -7 4 C-9.64 4.99 -12.28 5.98 -15 7 C-14.34 7.66 -13.68 8.32 -13 9 C-15 11 -15 11 -17.625 11.125 C-18.40875 11.08375 -19.1925 11.0425 -20 11 C-20.33 9.35 -20.66 7.7 -21 6 C-23.6465744 7.3232872 -23.87475516 8.25721571 -25 11 C-25.29915434 12.37339038 -25.59021878 13.74855745 -25.875 15.125 C-26.75611971 18.8065777 -26.75611971 18.8065777 -28.8125 20.4375 C-31.19959343 21.05132403 -33.56829288 21.59471548 -36 22 C-35.979375 22.804375 -35.95875 23.60875 -35.9375 24.4375 C-36 27 -36 27 -37 28 C-37 28.99 -37 29.98 -37 31 C-39.5 32.6875 -39.5 32.6875 -42 34 C-43.125 31.6875 -43.125 31.6875 -44 29 C-43.01 27.515 -43.01 27.515 -42 26 C-41.773125 25.154375 -41.54625 24.30875 -41.3125 23.4375 C-37.62160347 13.77086622 -30.50290205 6.1016357 -21.5625 1.0625 C-14.84042411 -1.16461201 -6.98157567 -0.21420744 0 0 Z " fill="#34E6D7" transform="translate(196,11)"/>
<path d="M0 0 C5.6221759 2.5935379 9.71428459 5.95666192 13.13671875 11.125 C13.51570313 11.67542969 13.8946875 12.22585937 14.28515625 12.79296875 C15.61651546 16.43893869 15.34462108 20.02960718 15.26171875 23.875 C15.25269531 24.66777344 15.24367187 25.46054688 15.234375 26.27734375 C15.21088887 28.22669281 15.17502012 30.17588575 15.13671875 32.125 C12.13671875 28.375 12.13671875 28.375 12.13671875 26.125 C12.79671875 26.125 13.45671875 26.125 14.13671875 26.125 C13.64171875 22.66 13.64171875 22.66 13.13671875 19.125 C12.14671875 18.795 11.15671875 18.465 10.13671875 18.125 C8.75 15.40234375 8.75 15.40234375 7.44921875 12.0625 C7.01222656 10.95777344 6.57523438 9.85304687 6.125 8.71484375 C5.63580078 7.43287109 5.63580078 7.43287109 5.13671875 6.125 C2.16671875 6.125 -0.80328125 6.125 -3.86328125 6.125 C-4.19328125 4.805 -4.52328125 3.485 -4.86328125 2.125 C-5.48203125 2.434375 -6.10078125 2.74375 -6.73828125 3.0625 C-8.11328125 3.75 -9.48828125 4.4375 -10.86328125 5.125 C-11.85328125 4.795 -12.84328125 4.465 -13.86328125 4.125 C-13.86328125 4.785 -13.86328125 5.445 -13.86328125 6.125 C-14.91515625 6.186875 -14.91515625 6.186875 -15.98828125 6.25 C-19.90222547 7.44120041 -22.55666191 9.740373 -24.86328125 13.125 C-24.86328125 14.445 -24.86328125 15.765 -24.86328125 17.125 C-25.85328125 17.785 -26.84328125 18.445 -27.86328125 19.125 C-28.37375443 22.21030883 -28.37375443 22.21030883 -28.42578125 25.6875 C-28.50346967 27.83687958 -28.6334325 29.98653382 -28.86328125 32.125 C-29.85328125 32.62 -29.85328125 32.62 -30.86328125 33.125 C-30.97173152 30.08236733 -31.05080188 27.04363796 -31.11328125 24 C-31.14679688 23.1440625 -31.1803125 22.288125 -31.21484375 21.40625 C-31.3197647 14.58638806 -29.58524904 11.25287526 -25.08203125 6.078125 C-24.51484375 5.51609375 -23.94765625 4.9540625 -23.36328125 4.375 C-22.79609375 3.80265625 -22.22890625 3.2303125 -21.64453125 2.640625 C-15.63150575 -2.47572126 -7.30334445 -2.23185424 0 0 Z " fill="#4CB9F0" transform="translate(199.86328125,143.875)"/>
<path d="M0 0 C0.33 0 0.66 0 1 0 C0.67 19.47 0.34 38.94 0 59 C-12.21 59 -24.42 59 -37 59 C-37 58.34 -37 57.68 -37 57 C-35.865625 57.020625 -34.73125 57.04125 -33.5625 57.0625 C-30.18424326 57.41577477 -30.18424326 57.41577477 -29 56 C-25.92441137 55.92752663 -22.86084597 56.00384561 -19.78515625 56.0625 C-17.04270691 56.19928462 -17.04270691 56.19928462 -15 55 C-15 55.66 -15 56.32 -15 57 C-9.555 56.505 -9.555 56.505 -4 56 C-4.00523682 54.86981445 -4.01047363 53.73962891 -4.01586914 52.57519531 C-4.03398226 48.37826328 -4.04545512 44.18133469 -4.05493164 39.984375 C-4.05995741 38.16861388 -4.06677903 36.3528568 -4.07543945 34.53710938 C-4.08758189 31.9257711 -4.09324591 29.31448638 -4.09765625 26.703125 C-4.10281754 25.89256653 -4.10797882 25.08200806 -4.11329651 24.24688721 C-4.11365296 20.6579583 -3.97045947 17.45259214 -3 14 C-2.34 14 -1.68 14 -1 14 C-1.01160156 13.32453125 -1.02320313 12.6490625 -1.03515625 11.953125 C-1.04417969 11.06109375 -1.05320313 10.1690625 -1.0625 9.25 C-1.07410156 8.36828125 -1.08570313 7.4865625 -1.09765625 6.578125 C-1.00826198 4.2181162 -0.66912821 2.25501476 0 0 Z " fill="#101824" transform="translate(167,157)"/>
<path d="M0 0 C2.98704569 0.49784095 4.39324263 1.26216175 7 3 C5.70387083 5.89136508 4.47085009 7.99119698 2 10 C-0.05581951 10.36914349 -0.05581951 10.36914349 -2.46086121 10.36076355 C-3.83014015 10.36694954 -3.83014015 10.36694954 -5.2270813 10.3732605 C-6.22617523 10.36247467 -7.22526917 10.35168884 -8.25463867 10.34057617 C-9.83537422 10.34123329 -9.83537422 10.34123329 -11.44804382 10.34190369 C-14.93820597 10.33981035 -18.42789031 10.31645309 -21.91796875 10.29296875 C-24.33506508 10.28737475 -26.7521648 10.28310373 -29.16926575 10.28010559 C-35.53650271 10.26864147 -41.90353494 10.23916059 -48.27069092 10.20599365 C-54.7657189 10.17532665 -61.26077989 10.16160745 -67.75585938 10.14648438 C-80.50399368 10.11429258 -93.25198596 10.06365238 -106 10 C-106 9.67 -106 9.34 -106 9 C-86.86 9 -67.72 9 -48 9 C-48 8.34 -48 7.68 -48 7 C-32.82 7 -17.64 7 -2 7 C-1.67 5.02 -1.34 3.04 -1 1 C-0.67 0.67 -0.34 0.34 0 0 Z " fill="#2F83CE" transform="translate(208,256)"/>
<path d="M0 0 C1.28094579 4.22340824 0.64949746 6.87625635 -1 11 C-3.625 12.8125 -3.625 12.8125 -6 14 C-6 14.66 -6 15.32 -6 16 C-5.34 16.66 -4.68 17.32 -4 18 C-4.66 18.66 -5.32 19.32 -6 20 C-6.27744961 22.28252362 -6.45029678 24.57841497 -6.5625 26.875 C-6.90914912 33.65234395 -6.90914912 33.65234395 -7.5859375 36.2421875 C-8.2584502 39.09719425 -7.02763948 41.34022723 -6 44 C-5.34 44 -4.68 44 -4 44 C-3.64808594 44.96679688 -3.64808594 44.96679688 -3.2890625 45.953125 C-2.18838927 48.2077908 -2.18838927 48.2077908 0.1640625 48.609375 C0.97617187 48.65578125 1.78828125 48.7021875 2.625 48.75 C3.85089844 48.83507812 3.85089844 48.83507812 5.1015625 48.921875 C5.72804688 48.94765625 6.35453125 48.9734375 7 49 C7.79953138 52.28696233 8.09658936 53.71023192 7 57 C-1.10170979 54.3788586 -5.99712863 48.44120292 -9.9765625 41.23046875 C-13.47784265 33.4589357 -13.07191224 24.36507402 -10.5 16.375 C-8.00785696 10.24396695 -4.10098262 5.14613595 0 0 Z " fill="#4999D8" transform="translate(24,208)"/>
<path d="M0 0 C-1.52696681 3.323852 -3.45274389 6.12432889 -5.625 9.0625 C-7.80146226 12.00643087 -9.96487499 14.94961194 -12.05859375 17.953125 C-17.2134957 25.30865761 -22.36206315 31.73677941 -31 35 C-33.375 34.6875 -33.375 34.6875 -35 34 C-35 32.35 -35 30.7 -35 29 C-31.66666667 29 -28.33333333 29 -25 29 C-24.67 28.01 -24.34 27.02 -24 26 C-23.34 26 -22.68 26 -22 26 C-22.33 24.68 -22.66 23.36 -23 22 C-22.01 22 -21.02 22 -20 22 C-19.01 18.7 -18.02 15.4 -17 12 C-15.35 11.67 -13.7 11.34 -12 11 C-12.103125 9.741875 -12.20625 8.48375 -12.3125 7.1875 C-12.3046875 4.98046875 -12.3046875 4.98046875 -12 3 C-8.3893061 -0.50127893 -4.84147981 -0.28479293 0 0 Z " fill="#3C9FF1" transform="translate(90,231)"/>
<path d="M0 0 C1.98 0 3.96 0 6 0 C2.39701443 5.58264797 -1.39311706 10.89483294 -5.58203125 16.0546875 C-7.18357772 18.04528783 -7.18357772 18.04528783 -8 21 C-1.07 21 5.86 21 13 21 C11.99609759 25.01560965 10.82479402 26.95119372 8.4375 30.25 C7.47650391 31.58804688 7.47650391 31.58804688 6.49609375 32.953125 C6.00238281 33.62859375 5.50867188 34.3040625 5 35 C4 32 4 32 4.875 30.0625 C5.24625 29.381875 5.6175 28.70125 6 28 C6.33 26.68 6.66 25.36 7 24 C0.73 24 -5.54 24 -12 24 C-13 16 -13 16 -12 14 C-10.68 14 -9.36 14 -8 14 C-7.67 11.03 -7.34 8.06 -7 5 C-5.824375 4.87625 -5.824375 4.87625 -4.625 4.75 C-1.85250896 4.27193661 -1.85250896 4.27193661 -0.6875 1.9375 C-0.460625 1.298125 -0.23375 0.65875 0 0 Z " fill="#429CE8" transform="translate(86,196)"/>
<path d="M0 0 C0.06058594 0.69867188 0.12117187 1.39734375 0.18359375 2.1171875 C0.26738281 3.02726562 0.35117188 3.93734375 0.4375 4.875 C0.51871094 5.77992187 0.59992188 6.68484375 0.68359375 7.6171875 C0.86989285 10.01110861 0.86989285 10.01110861 2 12 C2.04022391 14.3329866 2.04320247 16.66706666 2 19 C0.68 19.33 -0.64 19.66 -2 20 C-2 19.01 -2 18.02 -2 17 C-2.66 17 -3.32 17 -4 17 C-4.33 17.66 -4.66 18.32 -5 19 C-5.66 19 -6.32 19 -7 19 C-7.2475 19.804375 -7.495 20.60875 -7.75 21.4375 C-9 24 -9 24 -11.125 24.8125 C-11.74375 24.874375 -12.3625 24.93625 -13 25 C-13.66 23.68 -14.32 22.36 -15 21 C-14.34 21 -13.68 21 -13 21 C-12.79246094 20.23816406 -12.58492187 19.47632812 -12.37109375 18.69140625 C-6.79400749 0 -6.79400749 0 0 0 Z " fill="#0E1A21" transform="translate(167,99)"/>
<path d="M0 0 C0.33 0 0.66 0 1 0 C1.37151703 5.57275542 1.37151703 5.57275542 -0.25 7.4375 C-1.11625 8.2109375 -1.11625 8.2109375 -2 9 C-2.69177534 10.194136 -3.35623044 11.40431387 -4 12.625 C-6 16 -6 16 -9 17 C-10.53606427 18.95460994 -10.53606427 18.95460994 -11.9375 21.3125 C-14.03207943 24.57650964 -15.97203859 27.51274599 -19 30 C-19.66 30 -20.32 30 -21 30 C-20.67 32.64 -20.34 35.28 -20 38 C-22.01239179 39.51606198 -24.02995605 41.02170401 -26.0703125 42.5 C-26.74835937 42.995 -27.42640625 43.49 -28.125 44 C-28.80820312 44.495 -29.49140625 44.99 -30.1953125 45.5 C-32.24518466 47.05868663 -32.24518466 47.05868663 -34 50 C-34.66 49.67 -35.32 49.34 -36 49 C-25.57966242 34.28187341 -14.96802624 19.70064298 -3.890625 5.46875 C-2.53040707 3.69259766 -1.2409562 1.8614343 0 0 Z " fill="#46B3DE" transform="translate(85,126)"/>
<path d="M0 0 C-0.47730838 1.4589426 -0.95691042 2.91713496 -1.4375 4.375 C-1.70433594 5.18710938 -1.97117187 5.99921875 -2.24609375 6.8359375 C-3 9 -3 9 -4 11 C-2.02 11 -0.04 11 2 11 C2.33 11.66 2.66 12.32 3 13 C-0.8415976 15.56780471 -4.8139175 15.22688882 -9.25 15.125 C-9.99507813 15.11597656 -10.74015625 15.10695312 -11.5078125 15.09765625 C-13.33868059 15.07418358 -15.16938238 15.03831525 -17 15 C-16.38554825 11.69084419 -15.21831218 9.60583297 -13.1875 6.9375 C-12.68605469 6.26589844 -12.18460937 5.59429687 -11.66796875 4.90234375 C-7.97640266 0.69205643 -5.63430325 -0.38415704 0 0 Z " fill="#0F1923" transform="translate(96,201)"/>
<path d="M0 0 C2.475 0.495 2.475 0.495 5 1 C4.48347046 5.32198186 1.72684258 8.13924441 -0.9375 11.375 C-6.58706998 18.38432238 -11.83562619 25.62872459 -17 33 C-17.33 32.34 -17.66 31.68 -18 31 C-18.99 30.67 -19.98 30.34 -21 30 C-21 29.01 -21 28.02 -21 27 C-19.68 26.67 -18.36 26.34 -17 26 C-17.33 25.01 -17.66 24.02 -18 23 C-17.030625 22.731875 -16.06125 22.46375 -15.0625 22.1875 C-14.051875 21.795625 -13.04125 21.40375 -12 21 C-11.67 20.01 -11.34 19.02 -11 18 C-10.34 18 -9.68 18 -9 18 C-8.67 15.03 -8.34 12.06 -8 9 C-7.01 9 -6.02 9 -5 9 C-4.54625 8.071875 -4.0925 7.14375 -3.625 6.1875 C-2 3 -2 3 0 0 Z " fill="#38B2E8" transform="translate(123,146)"/>
<path d="M0 0 C4.49989135 1.41425157 6.87679481 3.49591612 10 7 C10.51062988 7.45769775 11.02125977 7.91539551 11.54736328 8.38696289 C17.19390039 14.25696166 16.69817547 20.69163173 16.57617188 28.35351562 C16.53018698 30.00651708 16.48396044 31.65951184 16.4375 33.3125 C16.41594766 34.98499374 16.3970438 36.65752382 16.38085938 38.33007812 C16.21559253 50.35322242 16.21559253 50.35322242 15 54 C13.515 54.495 13.515 54.495 12 55 C11.79081045 50.50242465 12.20374779 46.3834949 12.9375 41.9375 C14.07840049 34.97881617 14.59916648 28.03568315 15 21 C13.68 20.67 12.36 20.34 11 20 C10.67 18.35 10.34 16.7 10 15 C9.34 15 8.68 15 8 15 C8.33 13.35 8.66 11.7 9 10 C6.69 9.67 4.38 9.34 2 9 C2.33 8.01 2.66 7.02 3 6 C2.04701223 4.63266972 1.04625409 3.29735507 0 2 C0 1.34 0 0.68 0 0 Z " fill="#27F1E6" transform="translate(199,13)"/>
<path d="M0 0 C1 2 1 2 1 6 C-0.62339805 7.70884005 -2.29319053 9.37446717 -4 11 C-5.17574711 13.09989652 -5.17574711 13.09989652 -6 15 C-6.66 15.66 -7.32 16.32 -8 17 C-8.64767793 19.57061311 -8.64767793 19.57061311 -9 22 C-9.99 22.33 -10.98 22.66 -12 23 C-12.33 23.99 -12.66 24.98 -13 26 C-15.0625 27.1875 -15.0625 27.1875 -17 28 C-16.67 29.32 -16.34 30.64 -16 32 C-17.485 32.495 -17.485 32.495 -19 33 C-19 32.34 -19 31.68 -19 31 C-20.32 31.33 -21.64 31.66 -23 32 C-22.67 34.64 -22.34 37.28 -22 40 C-22.99 40 -23.98 40 -25 40 C-25.89453125 37.53125 -25.89453125 37.53125 -26 34 C-24.28381978 30.85772028 -21.99303615 28.22695314 -19.6875 25.5 C-18.392172 23.9081669 -17.09922552 22.31439309 -15.80859375 20.71875 C-15.16390137 19.92855469 -14.51920898 19.13835937 -13.85498047 18.32421875 C-10.73729869 14.41788412 -7.88086683 10.33750012 -5.0222168 6.24023438 C-3.44866315 3.99414355 -1.94434562 1.94434562 0 0 Z " fill="#429FF2" transform="translate(124,222)"/>
<path d="M0 0 C1.40907283 2.81814566 0.50872691 4.17277204 -0.4375 7.125 C-0.86869141 8.49011719 -0.86869141 8.49011719 -1.30859375 9.8828125 C-1.53675781 10.58148438 -1.76492187 11.28015625 -2 12 C-2.66 12 -3.32 12 -4 12 C-4.0928125 13.0828125 -4.0928125 13.0828125 -4.1875 14.1875 C-5.24957899 17.86392727 -7.28341714 19.34809768 -10 22 C-11.01559401 23.99212671 -12.01789629 25.9911515 -13 28 C-13.99 28.66 -14.98 29.32 -16 30 C-16.99 29.67 -17.98 29.34 -19 29 C-19.99 31.475 -19.99 31.475 -21 34 C-21.99 34 -22.98 34 -24 34 C-22.7129307 30.3785403 -21.23065762 27.79786181 -18.75 24.875 C-14.47352275 19.67987208 -10.47970482 14.30013522 -6.5 8.875 C-5.86416992 8.00858887 -5.22833984 7.14217773 -4.57324219 6.24951172 C-3.04720018 4.1675247 -1.52271318 2.08442229 0 0 Z " fill="#0D1A26" transform="translate(157,109)"/>
<path d="M0 0 C0.495 0.99 0.495 0.99 1 2 C0.34 3.32 -0.32 4.64 -1 6 C-37.63 6 -74.26 6 -112 6 C-112 5.67 -112 5.34 -112 5 C-111.44708408 4.99853344 -110.89416817 4.99706688 -110.32449722 4.99555588 C-96.87047676 4.95850331 -83.41671166 4.89925659 -69.96289444 4.81609726 C-63.45669786 4.77655389 -56.95063803 4.74439897 -50.44433594 4.72900391 C-44.16776496 4.71388268 -37.89156974 4.67951748 -31.61516571 4.63169098 C-29.21817029 4.61683039 -26.82112123 4.60895632 -24.4240799 4.60811615 C-21.07169827 4.60575888 -17.72036563 4.57877792 -14.36816406 4.54589844 C-13.37266541 4.5509288 -12.37716675 4.55595917 -11.35150146 4.56114197 C-5.94695879 4.55651089 -5.94695879 4.55651089 -1.35198975 1.96588135 C-0.90583313 1.3171405 -0.45967651 0.66839966 0 0 Z " fill="#062343" transform="translate(214,261)"/>
<path d="M0 0 C1 2 1 2 0.375 4.3125 C-1 7 -1 7 -3.375 9.25 C-6.29766502 12.31183955 -7.45278661 15.00410398 -9.02734375 18.8671875 C-10 21 -10 21 -12.125 23.625 C-14.53683568 26.67999186 -15.1135177 29.23245022 -16 33 C-18.31 32.67 -20.62 32.34 -23 32 C-16.39878856 20.70370201 -7.86037741 10.44120132 0 0 Z " fill="#46ADEB" transform="translate(48,176)"/>
<path d="M0 0 C1 3 1 3 0 6 C-0.66 6 -1.32 6 -2 6 C-2.268125 6.639375 -2.53625 7.27875 -2.8125 7.9375 C-4 10 -4 10 -7 11 C-7.11472656 11.72703125 -7.22945312 12.4540625 -7.34765625 13.203125 C-8.01883949 16.08077291 -8.98773514 18.18602416 -10.4375 20.75 C-10.86933594 21.52859375 -11.30117187 22.3071875 -11.74609375 23.109375 C-13 25 -13 25 -15 26 C-15.495 26.845625 -15.99 27.69125 -16.5 28.5625 C-16.995 29.366875 -17.49 30.17125 -18 31 C-18.66 31 -19.32 31 -20 31 C-20.33 31.66 -20.66 32.32 -21 33 C-21.99 32.67 -22.98 32.34 -24 32 C-19.72335286 26.0571267 -15.39765649 20.17207424 -10.875 14.4140625 C-7.1828783 9.66045581 -3.59953904 4.82387205 0 0 Z " fill="#0E243C" transform="translate(119,160)"/>
<path d="M0 0 C2.31 0 4.62 0 7 0 C4.41127625 4.72131082 1.65296343 8.94333632 -1.6875 13.1875 C-2.56447906 14.30936696 -3.44076404 15.43177679 -4.31640625 16.5546875 C-4.75871582 17.12026367 -5.20102539 17.68583984 -5.65673828 18.26855469 C-7.84658301 21.0912335 -9.98684905 23.9505744 -12.125 26.8125 C-12.87007812 27.80894531 -13.61515625 28.80539063 -14.3828125 29.83203125 C-14.91648437 30.54746094 -15.45015625 31.26289063 -16 32 C-16.33 31.01 -16.66 30.02 -17 29 C-16.34 29 -15.68 29 -15 29 C-14.67 27.35 -14.34 25.7 -14 24 C-13.34 24 -12.68 24 -12 24 C-12 23.01 -12 22.02 -12 21 C-11.01 21 -10.02 21 -9 21 C-9 19.02 -9 17.04 -9 15 C-7.68 15 -6.36 15 -5 15 C-4.9175 13.9275 -4.835 12.855 -4.75 11.75 C-3.92106402 7.60532012 -2.96887643 6.77733602 0 4 C0 2.68 0 1.36 0 0 Z " fill="#0D1F37" transform="translate(44,172)"/>
<path d="M0 0 C0.33 0 0.66 0 1 0 C1.04635202 10.3443318 1.08188382 20.68863887 1.10362434 31.0330534 C1.11405899 35.83644468 1.12821244 40.63976487 1.15087891 45.44311523 C1.17261855 50.07910167 1.18457103 54.71501976 1.18975449 59.35105324 C1.19344822 61.11927173 1.20066113 62.88748651 1.21146011 64.65567589 C1.22598992 67.13340702 1.22797732 69.61085613 1.22705078 72.08862305 C1.23783661 73.1837471 1.23783661 73.1837471 1.24884033 74.30099487 C1.23262328 78.31204297 0.77530798 81.38829823 -1 85 C-1.99 85 -2.98 85 -4 85 C-4 85.66 -4 86.32 -4 87 C-4.66 86.67 -5.32 86.34 -6 86 C-5.64726517 85.555923 -5.29453033 85.11184601 -4.93110657 84.65431213 C0.38227315 76.81346291 -0.26832724 68.35661198 -0.29296875 59.27734375 C-0.27983672 57.5638301 -0.2645279 55.85033189 -0.24714661 54.13685608 C-0.20745934 49.65373492 -0.19711673 45.17102021 -0.19311523 40.68774414 C-0.18375293 36.10225217 -0.14632016 31.51699596 -0.11132812 26.93164062 C-0.04691828 17.95443794 -0.01354218 8.97741357 0 0 Z " fill="#0E565A" transform="translate(216,33)"/>
<path d="M0 0 C1.98 0 3.96 0 6 0 C4.58503434 2.16760697 3.15622448 4.32380826 1.70703125 6.46875 C0.62068421 8.07962616 -0.4467491 9.70354189 -1.48828125 11.34375 C-5.05335259 16.6481149 -5.05335259 16.6481149 -7.93359375 17.71875 C-9.875 18 -9.875 18 -13 18 C-12.67 16.68 -12.34 15.36 -12 14 C-10.68 14 -9.36 14 -8 14 C-7.67 11.03 -7.34 8.06 -7 5 C-5.824375 4.87625 -5.824375 4.87625 -4.625 4.75 C-1.85250896 4.27193661 -1.85250896 4.27193661 -0.6875 1.9375 C-0.460625 1.298125 -0.23375 0.65875 0 0 Z " fill="#3CA4E6" transform="translate(86,196)"/>
<path d="M0 0 C0.66 0 1.32 0 2 0 C1.47731534 2.76276177 0.89130413 5.3260876 0 8 C-0.99 8.495 -0.99 8.495 -2 9 C-2.350625 9.99 -2.70125 10.98 -3.0625 12 C-5.22855524 17.3816424 -9.54876442 21.40506797 -14 25 C-16.28515625 25.7578125 -16.28515625 25.7578125 -18 26 C-16.50079488 22.88626628 -14.91847864 19.87771795 -13 17 C-12.34 17 -11.68 17 -11 17 C-11 16.34 -11 15.68 -11 15 C-10.34 15 -9.68 15 -9 15 C-9 14.34 -9 13.68 -9 13 C-8.01 13 -7.02 13 -6 13 C-6 11.68 -6 10.36 -6 9 C-5.34 8.67 -4.68 8.34 -4 8 C-3.34444881 5.47266765 -3.34444881 5.47266765 -3 3 C-2.01 3 -1.02 3 0 3 C0 2.01 0 1.02 0 0 Z " fill="#16191C" transform="translate(89,235)"/>
<path d="M0 0 C-0.35049575 3.24208567 -0.56221181 4.61527704 -3.0625 6.8125 C-3.701875 7.204375 -4.34125 7.59625 -5 8 C-5.66 7.34 -6.32 6.68 -7 6 C-6.75 2.9375 -6.75 2.9375 -6 0 C-3.50907189 -1.24546405 -2.58919267 -0.7767578 0 0 Z M-7 6 C-7.99898325 8.00692599 -9.00467365 10.00902984 -10.03515625 12 C-10.37417969 12.66 -10.71320313 13.32 -11.0625 14 C-11.40410156 14.66 -11.74570313 15.32 -12.09765625 16 C-12.99408846 17.98689737 -13.53964902 19.87384292 -14 22 C-14.99 22 -15.98 22 -17 22 C-17 22.99 -17 23.98 -17 25 C-17.66 25 -18.32 25 -19 25 C-20 22 -20 22 -19.0390625 20.0625 C-18.57242188 19.381875 -18.10578125 18.70125 -17.625 18 C-15.98182037 15.57653954 -14.93700802 13.81102407 -14 11 C-9.46511628 6 -9.46511628 6 -7 6 Z " fill="#14181D" transform="translate(126,160)"/>
<path d="M0 0 C0.33 0.66 0.66 1.32 1 2 C-0.21484375 4.3828125 -0.21484375 4.3828125 -1.9375 7.125 C-2.50339844 8.03507812 -3.06929687 8.94515625 -3.65234375 9.8828125 C-4.09707031 10.58148438 -4.54179688 11.28015625 -5 12 C-3.35 11.34 -1.7 10.68 0 10 C0 10.99 0 11.98 0 13 C-1.32 13 -2.64 13 -4 13 C-4 13.66 -4 14.32 -4 15 C-5.32 15 -6.64 15 -8 15 C-8.99 18.3 -9.98 21.6 -11 25 C-11.33 24.01 -11.66 23.02 -12 22 C-12.66 22 -13.32 22 -14 22 C-14 22.66 -14 23.32 -14 24 C-14.99 24 -15.98 24 -17 24 C-15.37545276 20.37069234 -13.15412626 17.40643788 -10.75 14.25 C-9.94399976 13.18750808 -9.13801022 12.12500805 -8.33203125 11.0625 C-7.56246094 10.051875 -6.79289062 9.04125 -6 8 C-4.81095698 6.41782511 -3.62318815 4.8346906 -2.4375 3.25 C-1.625 2.16666667 -0.8125 1.08333333 0 0 Z " fill="#3EC8DB" transform="translate(112,90)"/>
<path d="M0 0 C0.66 0 1.32 0 2 0 C-0.25791059 4.80076733 -3.39811617 8.90474716 -6.5 13.1875 C-7.09425781 14.01958984 -7.68851563 14.85167969 -8.30078125 15.70898438 C-9.15736328 16.89524414 -9.15736328 16.89524414 -10.03125 18.10546875 C-10.55267578 18.82887451 -11.07410156 19.55228027 -11.61132812 20.29760742 C-13 22 -13 22 -15 23 C-14.67 20.69 -14.34 18.38 -14 16 C-12.68 15.67 -11.36 15.34 -10 15 C-10 14.34 -10 13.68 -10 13 C-10.66 13 -11.32 13 -12 13 C-12 11.35 -12 9.7 -12 8 C-11.13375 7.979375 -10.2675 7.95875 -9.375 7.9375 C-5.14080758 6.76133544 -3.86123743 4.92213711 -1.296875 1.49609375 C-0.86890625 1.00238281 -0.4409375 0.50867188 0 0 Z " fill="#091F31" transform="translate(70,143)"/>
<path d="M0 0 C0.33 0 0.66 0 1 0 C1 12.54 1 25.08 1 38 C-1.03254303 33.93491393 -1.20059618 32.60279155 -1.0625 28.25 C-0.93480122 21.60966318 -1.39128392 15.13839484 -1.9765625 8.53125 C-1.999564 5.0656911 -1.54250661 3.06146349 0 0 Z " fill="#37A7FA" transform="translate(214,181)"/>
<path d="M0 0 C3.96 0 7.92 0 12 0 C12 0.66 12 1.32 12 2 C9.36 2.99 6.72 3.98 4 5 C4.66 5.66 5.32 6.32 6 7 C4 9 4 9 1.375 9.125 C0.59125 9.08375 -0.1925 9.0425 -1 9 C-1 5 -1 5 0 0 Z " fill="#27F2DB" transform="translate(177,13)"/>
<path d="M0 0 C6.94618528 2.1830868 12.62805405 8.62372626 16 15 C15.6640625 17.24609375 15.6640625 17.24609375 15 19 C14.7525 18.195625 14.505 17.39125 14.25 16.5625 C13.27761141 13.828919 13.27761141 13.828919 10.875 13.1875 C10.25625 13.125625 9.6375 13.06375 9 13 C9 12.01 9 11.02 9 10 C6.69 9.67 4.38 9.34 2 9 C2.33 8.01 2.66 7.02 3 6 C2.04701223 4.63266972 1.04625409 3.29735507 0 2 C0 1.34 0 0.68 0 0 Z " fill="#2CF2E0" transform="translate(199,13)"/>
<path d="M0 0 C3.60244452 0.30878096 4.99345998 0.99447732 7.8125 3.375 C10 6 10 6 10 9 C10.66 9 11.32 9 12 9 C11.67 9.99 11.34 10.98 11 12 C10.01 12 9.02 12 8 12 C7.67 11.34 7.34 10.68 7 10 C6.175 9.731875 5.35 9.46375 4.5 9.1875 C3.675 8.795625 2.85 8.40375 2 8 C1.1875 5.375 1.1875 5.375 1 3 C0.34 3 -0.32 3 -1 3 C-0.67 2.01 -0.34 1.02 0 0 Z " fill="#141A23" transform="translate(15,255)"/>
<path d="M0 0 C2.67379586 0.04861447 5.32724613 0.04156949 8 0 C20.34736486 -0.10723064 32.66709563 0.45706919 45 1 C45 1.33 45 1.66 45 2 C27.18 2 9.36 2 -9 2 C-9 1.34 -9 0.68 -9 0 C-2.25 -1.125 -2.25 -1.125 0 0 Z " fill="#40A0EB" transform="translate(111,263)"/>
<path d="M0 0 C0.33 0.66 0.66 1.32 1 2 C0.38125 2.66 -0.2375 3.32 -0.875 4 C-3.49874482 7.70411034 -4.10086342 10.57924515 -5 15 C-10 15 -15 15 -20 15 C-17.96886416 13.9821396 -15.93744115 12.97016602 -13.88671875 11.9921875 C-7.92551168 8.96393666 -4.06997726 5.27395767 0 0 Z " fill="#132845" transform="translate(75,252)"/>
<path d="M0 0 C1.41750563 0.11509661 2.83401169 0.24253658 4.25 0.375 C5.03890625 0.44460937 5.8278125 0.51421875 6.640625 0.5859375 C9.085877 1.01507113 10.84836903 1.78600638 13 3 C11.8125 5.5 11.8125 5.5 10 8 C7.625 8.5625 7.625 8.5625 5 8 C2.1875 6.25 2.1875 6.25 0 4 C0 2.68 0 1.36 0 0 Z " fill="#3FCFEC" transform="translate(173,116)"/>
<path d="M0 0 C0.99 0.33 1.98 0.66 3 1 C2.67 1.66 2.34 2.32 2 3 C2 4.32 2 5.64 2 7 C1.67 7.33 1.34 7.66 1 8 C1 8.99 1 9.98 1 11 C-1.5 12.6875 -1.5 12.6875 -4 14 C-5.3125 12 -5.3125 12 -6 9 C-4.51336893 5.73186889 -2.55145795 2.55145795 0 0 Z " fill="#2CEEE1" transform="translate(158,31)"/>
<path d="M0 0 C0.33 0.66 0.66 1.32 1 2 C0.67 2.66 0.34 3.32 0 4 C0.66 4.33 1.32 4.66 2 5 C1.01 5.495 1.01 5.495 0 6 C-0.66 5.67 -1.32 5.34 -2 5 C-2 5.99 -2 6.98 -2 8 C-2.99 8 -3.98 8 -5 8 C-5 9.65 -5 11.3 -5 13 C-5.99 13.33 -6.98 13.66 -8 14 C-8 15.32 -8 16.64 -8 18 C-8.99 18 -9.98 18 -11 18 C-11 18.66 -11 19.32 -11 20 C-11.66 20 -12.32 20 -13 20 C-13 20.66 -13 21.32 -13 22 C-13.66 21.67 -14.32 21.34 -15 21 C-13.44190237 18.62201021 -11.87870873 16.24763961 -10.3125 13.875 C-9.87744141 13.20984375 -9.44238281 12.5446875 -8.99414062 11.859375 C-6.22270072 7.67142137 -3.2847523 3.79965942 0 0 Z M2 2 C2.99 2.495 2.99 2.495 4 3 C3.01 3.495 3.01 3.495 2 4 C2 3.34 2 2.68 2 2 Z " fill="#0E2944" transform="translate(91,230)"/>
<path d="M0 0 C1 2 1 2 1 6 C-0.62339805 7.70884005 -2.29319053 9.37446717 -4 11 C-5.29519995 13.16620544 -5.29519995 13.16620544 -6 15 C-6.99 15 -7.98 15 -9 15 C-10.03013277 16.64821244 -11.03114628 18.31503702 -12 20 C-12.66 20 -13.32 20 -14 20 C-12.19948898 15.92838986 -9.5919358 12.46668247 -7 8.875 C-6.54882812 8.24207031 -6.09765625 7.60914063 -5.6328125 6.95703125 C-3.86282957 4.49057575 -2.15041914 2.15041914 0 0 Z " fill="#4798DD" transform="translate(124,222)"/>
<path d="M0 0 C1.98 0.99 3.96 1.98 6 3 C5.01 4.485 5.01 4.485 4 6 C3.34 6 2.68 6 2 6 C1.7525 6.804375 1.505 7.60875 1.25 8.4375 C0 11 0 11 -2.125 11.8125 C-2.74375 11.874375 -3.3625 11.93625 -4 12 C-4.66 10.68 -5.32 9.36 -6 8 C-5.34 8 -4.68 8 -4 8 C-3.525625 6.865625 -3.05125 5.73125 -2.5625 4.5625 C-1 1 -1 1 0 0 Z " fill="#131A1F" transform="translate(158,112)"/>
<path d="M0 0 C0.66 0.33 1.32 0.66 2 1 C1.34 1.66 0.68 2.32 0 3 C-0.34979217 6.57319347 -0.44357324 10.12694604 -0.55859375 13.71484375 C-1 17 -1 17 -4 20 C-4 14.06 -4 8.12 -4 2 C-2.68 1.34 -1.36 0.68 0 0 Z " fill="#3FA8FA" transform="translate(18,225)"/>
<path d="M0 0 C1.65 0 3.3 0 5 0 C7.71486934 3.97610786 7.22440753 8.13901977 7.125 12.75 C7.11597656 13.54277344 7.10695312 14.33554688 7.09765625 15.15234375 C7.07417012 17.10169281 7.03830137 19.05088575 7 21 C4 17.25 4 17.25 4 15 C4.66 15 5.32 15 6 15 C5.67 12.69 5.34 10.38 5 8 C4.01 7.67 3.02 7.34 2 7 C0.35179805 4.39757586 0 3.13751221 0 0 Z " fill="#3FB0F3" transform="translate(208,155)"/>
<path d="M0 0 C0.495 0.99 0.495 0.99 1 2 C0.34 3.32 -0.32 4.64 -1 6 C-14.53 6 -28.06 6 -42 6 C-42 5.67 -42 5.34 -42 5 C-40.30472168 4.98598145 -40.30472168 4.98598145 -38.57519531 4.97167969 C-34.37785579 4.93177608 -30.18124896 4.86601674 -25.984375 4.79248047 C-24.16871561 4.7642729 -22.35293348 4.74305726 -20.53710938 4.72900391 C-17.92514211 4.70757091 -15.31465026 4.66092115 -12.703125 4.609375 C-11.89256653 4.60814636 -11.08200806 4.60691772 -10.24688721 4.60565186 C-6.49741247 4.50843185 -4.43038038 4.34479994 -1.45605469 1.96191406 C-0.97555664 1.31448242 -0.49505859 0.66705078 0 0 Z " fill="#0F2A4C" transform="translate(214,261)"/>
<path d="M0 0 C7.92 0 15.84 0 24 0 C23.67 0.99 23.34 1.98 23 3 C19.29924751 4.23358416 16.80582476 3.63430413 13 3 C12.67 3 12.34 3 12 3 C10.54049489 2.88951953 9.08227687 2.76176708 7.625 2.625 C6.83351563 2.55539062 6.04203125 2.48578125 5.2265625 2.4140625 C3 2 3 2 0 0 Z " fill="#151A1F" transform="translate(32,269)"/>
<path d="M0 0 C1.32 0.33 2.64 0.66 4 1 C-0.62 7.27 -5.24 13.54 -10 20 C-10.33 18.68 -10.66 17.36 -11 16 C-10.34 16 -9.68 16 -9 16 C-9 15.01 -9 14.02 -9 13 C-8.34 13 -7.68 13 -7 13 C-7 12.34 -7 11.68 -7 11 C-6.34 11 -5.68 11 -5 11 C-4.8453125 9.8553125 -4.8453125 9.8553125 -4.6875 8.6875 C-3.93772808 5.75657342 -3.16526733 4.98482838 -1 3 C-0.67 2.01 -0.34 1.02 0 0 Z " fill="#0D2549" transform="translate(116,227)"/>
<path d="M0 0 C1 2 1 2 0.375 4.3125 C-1 7 -1 7 -3.5 9.4375 C-6.21862154 12.22408708 -7.04657527 14.27297604 -8 18 C-8.99 18 -9.98 18 -11 18 C-11 18.66 -11 19.32 -11 20 C-12.32 20.33 -13.64 20.66 -15 21 C-10.32561251 13.74095119 -5.2274704 6.86541113 0 0 Z " fill="#499FD2" transform="translate(48,176)"/>
<path d="M0 0 C0.33 0.66 0.66 1.32 1 2 C1.66 2 2.32 2 3 2 C3.33 3.32 3.66 4.64 4 6 C3.01 6.33 2.02 6.66 1 7 C1 6.34 1 5.68 1 5 C-0.32 5.33 -1.64 5.66 -3 6 C-2.67 8.64 -2.34 11.28 -2 14 C-2.99 14 -3.98 14 -5 14 C-5.875 11.5 -5.875 11.5 -6 8 C-4.29572101 5.07388408 -2.22725962 2.54359505 0 0 Z " fill="#3D93DE" transform="translate(104,248)"/>
<path d="M0 0 C0.66 1.32 1.32 2.64 2 4 C1.01 4.66 0.02 5.32 -1 6 C-1.51047318 9.08530883 -1.51047318 9.08530883 -1.5625 12.5625 C-1.64018842 14.71187958 -1.77015125 16.86153382 -2 19 C-2.66 19.33 -3.32 19.66 -4 20 C-4.10854617 17.60293877 -4.18753157 15.21084162 -4.25 12.8125 C-4.28351563 12.13896484 -4.31703125 11.46542969 -4.3515625 10.77148438 C-4.42503051 7.00624873 -4.11393243 5.16891146 -1.984375 2.01171875 C-1.32953125 1.34785156 -0.6746875 0.68398437 0 0 Z " fill="#3EB7F9" transform="translate(173,157)"/>
<path d="M0 0 C1.65 0 3.3 0 5 0 C4.01 0.495 4.01 0.495 3 1 C3 2.32 3 3.64 3 5 C2.01 5 1.02 5 0 5 C0 5.66 0 6.32 0 7 C-0.66 7 -1.32 7 -2 7 C-2 7.99 -2 8.98 -2 10 C-2.66 10 -3.32 10 -4 10 C-4 10.99 -4 11.98 -4 13 C-4.99 12.67 -5.98 12.34 -7 12 C-6.25 9.125 -6.25 9.125 -5 6 C-2.9375 4.875 -2.9375 4.875 -1 4 C-0.19471111 1.94999129 -0.19471111 1.94999129 0 0 Z " fill="#151A23" transform="translate(113,80)"/>
<path d="M0 0 C2 2 2 2 2.1953125 3.9453125 C2.13020833 5.96354167 2.06510417 7.98177083 2 10 C-0.31 9.67 -2.62 9.34 -5 9 C-3.90931332 5.22454612 -3.0916909 2.52956528 0 0 Z " fill="#32E6E2" transform="translate(145,47)"/>
<path d="M0 0 C0.33 0 0.66 0 1 0 C1.375 2.125 1.375 2.125 1 5 C-0.74322351 7.29739641 -2.69638037 9.26333339 -5 11 C-5.66 11 -6.32 11 -7 11 C-7 12.32 -7 13.64 -7 15 C-8.32 15.33 -9.64 15.66 -11 16 C-9.31991577 12.21751528 -6.92161446 9.0307578 -4.4375 5.75 C-4.02564453 5.19570312 -3.61378906 4.64140625 -3.18945312 4.0703125 C-2.15306751 2.69298825 -1.07961421 1.3437077 0 0 Z " fill="#3DA5CC" transform="translate(71,145)"/>
<path d="M0 0 C0.6875 1.8125 0.6875 1.8125 1 4 C0.03377467 5.03267062 -0.97096315 6.02990559 -2 7 C-2.78356902 9.26393971 -2.78356902 9.26393971 -3.1875 11.6875 C-3.34605469 12.49574219 -3.50460938 13.30398437 -3.66796875 14.13671875 C-3.77753906 14.75160156 -3.88710937 15.36648437 -4 16 C-4.33 15.01 -4.66 14.02 -5 13 C-5.66 13 -6.32 13 -7 13 C-7 13.66 -7 14.32 -7 15 C-7.99 15 -8.98 15 -10 15 C-8.37815499 11.41486894 -6.20743761 8.41007677 -3.875 5.25 C-3.15054688 4.26515625 -2.42609375 3.2803125 -1.6796875 2.265625 C-1.12539062 1.51796875 -0.57109375 0.7703125 0 0 Z " fill="#3EBACF" transform="translate(105,99)"/>
<path d="M0 0 C0.66 0.33 1.32 0.66 2 1 C2.33 1.99 2.66 2.98 3 4 C2.01 4.33 1.02 4.66 0 5 C0 5.66 0 6.32 0 7 C0.99 7.33 1.98 7.66 3 8 C0 9 0 9 -4 9 C-4.99 9.495 -4.99 9.495 -6 10 C-4.52307692 3.47692308 -4.52307692 3.47692308 -1.875 1.0625 C-1.25625 0.711875 -0.6375 0.36125 0 0 Z " fill="#35D4D0" transform="translate(135,61)"/>
<path d="M0 0 C0.66 0.66 1.32 1.32 2 2 C1.8125 4 1.8125 4 1 6 C-2 8 -2 8 -4 9 C-5.13350534 11.01669827 -5.13350534 11.01669827 -6 13 C-6.71484375 10.76953125 -6.71484375 10.76953125 -7 8 C-5.56640625 5.76171875 -5.56640625 5.76171875 -3.5625 3.6875 C-2.57443359 2.64142578 -2.57443359 2.64142578 -1.56640625 1.57421875 C-1.04949219 1.05472656 -0.53257813 0.53523437 0 0 Z " fill="#3EBBF5" transform="translate(55,170)"/>
<path d="M0 0 C1 3 1 3 0 6 C-0.66 6 -1.32 6 -2 6 C-2.268125 6.639375 -2.53625 7.27875 -2.8125 7.9375 C-4 10 -4 10 -7 11 C-7.33 12.65 -7.66 14.3 -8 16 C-9.32 16.33 -10.64 16.66 -12 17 C-8.31121019 11.02564878 -4.68056077 5.24790147 0 0 Z " fill="#0B2A47" transform="translate(119,160)"/>
<path d="M0 0 C0.66 0.33 1.32 0.66 2 1 C1.2575 1.680625 0.515 2.36125 -0.25 3.0625 C-2.28507803 5.08038019 -3.70013556 7.04402551 -5.0625 9.5625 C-6.79742895 12.64059976 -8.38935127 14.66906363 -11 17 C-10.8104015 9.41605996 -5.0542087 5.00769758 0 0 Z " fill="#50ADDD" transform="translate(180,145)"/>
<path d="M0 0 C1.60080151 4.00200378 0.29279692 7.04556236 -1 11 C-2.32 11.33 -3.64 11.66 -5 12 C-5.35338623 9.03155565 -5.5417682 6.84401782 -3.88671875 4.265625 C-2.64496832 2.79651181 -1.32662082 1.39295186 0 0 Z " fill="#40AFF7" transform="translate(24,208)"/>
<path d="M0 0 C5.61 0 11.22 0 17 0 C17 1.32 17 2.64 17 4 C16.01 3.67 15.02 3.34 14 3 C11.60745424 2.77439324 9.21071877 2.59151405 6.8125 2.4375 C5.54019531 2.35371094 4.26789063 2.26992187 2.95703125 2.18359375 C1.98121094 2.12300781 1.00539062 2.06242188 0 2 C0 1.34 0 0.68 0 0 Z " fill="#37E2D1" transform="translate(179,11)"/>
<path d="M0 0 C1.65 0.33 3.3 0.66 5 1 C5 4 5 4 2.625 6.625 C0 9 0 9 -2 10 C-2.22036864 6.14354879 -1.60355101 3.50776784 0 0 Z " fill="#0E181C" transform="translate(132,143)"/>
<path d="M0 0 C0.99 0.33 1.98 0.66 3 1 C3 1.99 3 2.98 3 4 C2.34 4 1.68 4 1 4 C1.061875 5.175625 1.061875 5.175625 1.125 6.375 C1 9 1 9 -1 11 C-2.32 10.67 -3.64 10.34 -5 10 C-3.35 6.7 -1.7 3.4 0 0 Z " fill="#111928" transform="translate(74,132)"/>
<path d="M0 0 C2.625 -0.1875 2.625 -0.1875 5 0 C3.90353942 1.79639296 2.79754852 3.58697154 1.6875 5.375 C0.76517578 6.87160156 0.76517578 6.87160156 -0.17578125 8.3984375 C-2 11 -2 11 -5 13 C-5 12.01 -5 11.02 -5 10 C-4.34 10 -3.68 10 -3 10 C-2.87625 8.906875 -2.7525 7.81375 -2.625 6.6875 C-2 3 -2 3 0 0 Z " fill="#4098E0" transform="translate(79,240)"/>
<path d="M0 0 C0.66 0.33 1.32 0.66 2 1 C2 2.32 2 3.64 2 5 C1.34 5 0.68 5 0 5 C0 6.32 0 7.64 0 9 C-1.32 8.67 -2.64 8.34 -4 8 C-4.33 6.68 -4.66 5.36 -5 4 C-3.35 2.68 -1.7 1.36 0 0 Z " fill="#101821" transform="translate(27,196)"/>
<path d="M0 0 C1.27230469 0.00902344 2.54460937 0.01804688 3.85546875 0.02734375 C5.31919922 0.04474609 5.31919922 0.04474609 6.8125 0.0625 C6.8125 0.3925 6.8125 0.7225 6.8125 1.0625 C6.01585937 1.08828125 5.21921875 1.1140625 4.3984375 1.140625 C-2.06759207 1.48673851 -6.20614309 1.84750569 -11.1875 6.0625 C-12.1775 6.7225 -13.1675 7.3825 -14.1875 8.0625 C-14.5175 6.7425 -14.8475 5.4225 -15.1875 4.0625 C-13.8675 4.0625 -12.5475 4.0625 -11.1875 4.0625 C-10.8575 3.0725 -10.5275 2.0825 -10.1875 1.0625 C-6.62704823 -0.12431726 -3.74941663 -0.03439832 0 0 Z " fill="#11314F" transform="translate(189.1875,141.9375)"/>
<path d="M0 0 C2.8992226 0.46761655 3.86675182 0.86675182 6 3 C4.8125 5 4.8125 5 3 7 C0.3125 7.25 0.3125 7.25 -2 7 C-1.125 1.125 -1.125 1.125 0 0 Z " fill="#2E91F2" transform="translate(208,256)"/>
<path d="M0 0 C0.33 0 0.66 0 1 0 C1.3327958 3.66075376 1.46170299 5.39500988 -0.8125 8.375 C-3 10 -3 10 -6 10 C-6 10.66 -6 11.32 -6 12 C-6.66 11.67 -7.32 11.34 -8 11 C-6.69144447 9.16384919 -5.37805538 7.33114211 -4.0625 5.5 C-3.33160156 4.4790625 -2.60070312 3.458125 -1.84765625 2.40625 C-1.23792969 1.6121875 -0.62820312 0.818125 0 0 Z " fill="#3FB7CE" transform="translate(94,114)"/>
<path d="M0 0 C0.33 0 0.66 0 1 0 C1.74737188 5.97897503 -0.6768102 9.32379721 -4 14 C-4.33 13.01 -4.66 12.02 -5 11 C-5.66 11 -6.32 11 -7 11 C-6.67 9.68 -6.34 8.36 -6 7 C-4.35 7 -2.7 7 -1 7 C-0.67 4.69 -0.34 2.38 0 0 Z " fill="#3ECCE0" transform="translate(214,106)"/>
<path d="M0 0 C0.66 0 1.32 0 2 0 C1.67 2.64 1.34 5.28 1 8 C0.34 8 -0.32 8 -1 8 C-1 8.66 -1 9.32 -1 10 C-2.65 10.66 -4.3 11.32 -6 12 C-4.43358249 7.69235185 -2.31663844 3.93828536 0 0 Z " fill="#3BD8E5" transform="translate(113,90)"/>
<path d="M0 0 C-1 3 -1 3 -3 4 C-2.34 4.66 -1.68 5.32 -1 6 C-3.97 8.475 -3.97 8.475 -7 11 C-8 8 -8 8 -7.25 5.5 C-5.35211245 1.70422491 -4.38256338 0 0 0 Z " fill="#34DEE6" transform="translate(126,77)"/>
<path d="M0 0 C0.99 0.33 1.98 0.66 3 1 C6.35357089 1.26914008 9.70674598 1.44505804 13.06640625 1.62109375 C16 2 16 2 18 4 C12.39 4 6.78 4 1 4 C0.67 2.68 0.34 1.36 0 0 Z " fill="#40A3F2" transform="translate(73,216)"/>
<path d="M0 0 C0.66 0.66 1.32 1.32 2 2 C1.34 2 0.68 2 0 2 C0 3.32 0 4.64 0 6 C-0.99 6 -1.98 6 -3 6 C-3 7.65 -3 9.3 -3 11 C-3.99 11 -4.98 11 -6 11 C-6 9.02 -6 7.04 -6 5 C-5.34 5 -4.68 5 -4 5 C-4 3.68 -4 2.36 -4 1 C-2.125 0.375 -2.125 0.375 0 0 Z " fill="#32D0ED" transform="translate(155,105)"/>
<path d="M0 0 C-4.24740335 3.45101522 -8.61105071 6.73279209 -13 10 C-13.33 8.68 -13.66 7.36 -14 6 C-12.35 5.67 -10.7 5.34 -9 5 C-9 4.34 -9 3.68 -9 3 C-6.04341306 0.15291628 -4.05047276 -0.3375394 0 0 Z " fill="#0E272F" transform="translate(175,12)"/>
<path d="M0 0 C1.65 0 3.3 0 5 0 C5.79953138 3.28696233 6.09658936 4.71023192 5 8 C2.525 7.01 2.525 7.01 0 6 C0 4.02 0 2.04 0 0 Z " fill="#3B9CEB" transform="translate(26,257)"/>
<path d="M0 0 C0.99 0 1.98 0 3 0 C2.30058404 3.14737182 1.23921302 6.02588876 0 9 C-1.32 9 -2.64 9 -4 9 C-2.80100302 5.9168649 -1.52299523 2.93720508 0 0 Z " fill="#101516" transform="translate(86,206)"/>
<path d="M0 0 C1.98 0 3.96 0 6 0 C6.33 0.99 6.66 1.98 7 3 C9.50447516 4.21869929 9.50447516 4.21869929 12 5 C11.67 5.99 11.34 6.98 11 8 C7.37 6.35 3.74 4.7 0 3 C0 2.01 0 1.02 0 0 Z " fill="#142A47" transform="translate(197,141)"/>
<path d="M0 0 C1.40907283 2.81814566 0.50872691 4.17277204 -0.4375 7.125 C-0.72496094 8.03507812 -1.01242188 8.94515625 -1.30859375 9.8828125 C-1.65083984 10.93082031 -1.65083984 10.93082031 -2 12 C-3.65 11.67 -5.3 11.34 -7 11 C-4.84921278 7.14341602 -2.76544722 3.45680903 0 0 Z " fill="#102F40" transform="translate(157,109)"/>
<path d="M0 0 C1.60031344 3.20062687 0.03173691 5.72271806 -1 9 C-2.65 9.33 -4.3 9.66 -6 10 C-6.33 10.99 -6.66 11.98 -7 13 C-7.66 12.67 -8.32 12.34 -9 12 C-6.03 8.04 -3.06 4.08 0 0 Z " fill="#3BC1C4" transform="translate(129,67)"/>
<path d="M0 0 C0.33 1.32 0.66 2.64 1 4 C0.34 4 -0.32 4 -1 4 C-1.33 5.32 -1.66 6.64 -2 8 C-2.66 8 -3.32 8 -4 8 C-4 8.66 -4 9.32 -4 10 C-4.66 9.67 -5.32 9.34 -6 9 C-6 8.34 -6 7.68 -6 7 C-6.66 7.66 -7.32 8.32 -8 9 C-8 7.68 -8 6.36 -8 5 C-7.236875 4.731875 -6.47375 4.46375 -5.6875 4.1875 C-3.12619116 3.05575888 -1.80307062 2.08776599 0 0 Z " fill="#111C21" transform="translate(113,230)"/>
<path d="M0 0 C0.66 1.32 1.32 2.64 2 4 C1.01 4 0.02 4 -1 4 C-0.938125 5.175625 -0.938125 5.175625 -0.875 6.375 C-1 9 -1 9 -3 11 C-4.32 10.67 -5.64 10.34 -7 10 C-3.535 5.05 -3.535 5.05 0 0 Z " fill="#0D2236" transform="translate(131,144)"/>
<path d="M0 0 C0 0.66 0 1.32 0 2 C-1.0209375 2.061875 -1.0209375 2.061875 -2.0625 2.125 C-6.25515787 3.37387681 -8.8592439 6.04026731 -12 9 C-9.75580007 1.23161562 -8.27327615 -0.46829865 0 0 Z " fill="#3FBCF6" transform="translate(186,148)"/>
<path d="M0 0 C-0.99 0 -1.98 0 -3 0 C-3 0.66 -3 1.32 -3 2 C-1.02 2 0.96 2 3 2 C3 2.99 3 3.98 3 5 C-0.63 4.67 -4.26 4.34 -8 4 C-5.55533545 -0.8893291 -4.94253549 -1.48276065 0 0 Z " fill="#42B3E5" transform="translate(188,144)"/>
<path d="M0 0 C0.33 0 0.66 0 1 0 C1.36734694 5.51020408 1.36734694 5.51020408 -0.3125 7.75 C-1.84031928 8.88171799 -3.41800622 9.94533748 -5 11 C-5.66 10.67 -6.32 10.34 -7 10 C-5.85821872 8.33055479 -4.71147095 6.6645052 -3.5625 5 C-2.92441406 4.071875 -2.28632812 3.14375 -1.62890625 2.1875 C-1.09136719 1.465625 -0.55382812 0.74375 0 0 Z " fill="#48B4D1" transform="translate(85,126)"/>
<path d="M0 0 C0.33 0.66 0.66 1.32 1 2 C0.06421005 4.35981813 -0.93347808 6.69631264 -2 9 C-2.66 9 -3.32 9 -4 9 C-4 9.66 -4 10.32 -4 11 C-5.32 11.33 -6.64 11.66 -8 12 C-5.6163187 7.65829477 -3.21880117 3.7935871 0 0 Z " fill="#0F3045" transform="translate(149,120)"/>
<path d="M0 0 C0.99 0.33 1.98 0.66 3 1 C2.67 2.65 2.34 4.3 2 6 C0 6.66666667 -2 7.33333333 -4 8 C-3.40072174 4.64404172 -2.15377564 2.62198774 0 0 Z " fill="#3DC4F2" transform="translate(76,142)"/>
<path d="M0 0 C1.53445094 3.06890187 0.54984289 5.70094266 0 9 C-1.175625 9.2165625 -1.175625 9.2165625 -2.375 9.4375 C-4.96421018 9.87798925 -4.96421018 9.87798925 -7 11 C-5.22054913 6.95579349 -2.60470327 3.53921513 0 0 Z " fill="#0E2C47" transform="translate(94,193)"/>
<path d="M0 0 C0.99 0.33 1.98 0.66 3 1 C0.36 4.63 -2.28 8.26 -5 12 C-5.33 11.01 -5.66 10.02 -6 9 C-6.66 8.67 -7.32 8.34 -8 8 C-6.68 8 -5.36 8 -4 8 C-4 7.01 -4 6.02 -4 5 C-3.34 5 -2.68 5 -2 5 C-2 4.01 -2 3.02 -2 2 C-1.34 2 -0.68 2 0 2 C0 1.34 0 0.68 0 0 Z " fill="#0C2D3D" transform="translate(113,85)"/>
<path d="M0 0 C-1.65 1.65 -3.3 3.3 -5 5 C-5 4.34 -5 3.68 -5 3 C-5.66 3 -6.32 3 -7 3 C-7 1.68 -7 0.36 -7 -1 C-3.51418144 -2.2020064 -3.32007656 -2.21338437 0 0 Z " fill="#3CB3E5" transform="translate(134,141)"/>
<path d="M0 0 C1.13757948 4.55031791 0.4283779 6.63084406 -1 11 C-1.99 11 -2.98 11 -4 11 C-4 11.66 -4 12.32 -4 13 C-4.66 12.67 -5.32 12.34 -6 12 C-4.02 8.04 -2.04 4.08 0 0 Z " fill="#0D3347" transform="translate(216,107)"/>
<path d="M0 0 C0.66 0 1.32 0 2 0 C2 1.98 2 3.96 2 6 C0.35 6.66 -1.3 7.32 -3 8 C-3 6.02 -3 4.04 -3 2 C-2.01 2 -1.02 2 0 2 C0 1.34 0 0.68 0 0 Z " fill="#37D3EB" transform="translate(98,112)"/>
<path d="M0 0 C0.33 0.99 0.66 1.98 1 3 C-0.43359375 5.48046875 -0.43359375 5.48046875 -2.4375 8.1875 C-3.09621094 9.08855469 -3.75492188 9.98960938 -4.43359375 10.91796875 C-5.20896484 11.94857422 -5.20896484 11.94857422 -6 13 C-6.33 12.34 -6.66 11.68 -7 11 C-6.07421875 8.90625 -6.07421875 8.90625 -4.6875 6.5 C-4.23761719 5.7059375 -3.78773438 4.911875 -3.32421875 4.09375 C-2 2 -2 2 0 0 Z " fill="#40D6CB" transform="translate(154,34)"/>
<path d="M0 0 C0.99 0 1.98 0 3 0 C2.01 2.97 1.02 5.94 0 9 C-0.99 8.67 -1.98 8.34 -3 8 C-2.45276317 4.62537285 -1.9451 2.91765 0 0 Z " fill="#181A1F" transform="translate(144,38)"/>
<path d="M0 0 C0.66 0 1.32 0 2 0 C2 0.66 2 1.32 2 2 C2.66 2.33 3.32 2.66 4 3 C3.67 4.32 3.34 5.64 3 7 C2.01 7 1.02 7 0 7 C0 8.32 0 9.64 0 11 C-0.66 11 -1.32 11 -2 11 C-1.34 7.37 -0.68 3.74 0 0 Z " fill="#151C23" transform="translate(154,22)"/>
<path d="M0 0 C1.32 0.66 2.64 1.32 4 2 C1.69 5.3 -0.62 8.6 -3 12 C-3.33 10.68 -3.66 9.36 -4 8 C-3.34 8 -2.68 8 -2 8 C-2 6.68 -2 5.36 -2 4 C-1.01 4 -0.02 4 1 4 C0.67 2.68 0.34 1.36 0 0 Z " fill="#0A2639" transform="translate(79,128)"/>
<path d="M0 0 C1.09658936 3.28976808 0.79953138 4.71303767 0 8 C-1.65 8.33 -3.3 8.66 -5 9 C-5.33 10.32 -5.66 11.64 -6 13 C-5.67 10.69 -5.34 8.38 -5 6 C-4.01 5.67 -3.02 5.34 -2 5 C-0.78130071 2.49552484 -0.78130071 2.49552484 0 0 Z " fill="#191620" transform="translate(217,112)"/>
<path d="M0 0 C1.98 0.495 1.98 0.495 4 1 C3.74438677 3.3431213 3.40729228 5.67843403 3 8 C2.01 8.495 2.01 8.495 1 9 C0.34 8.01 -0.32 7.02 -1 6 C-0.67 5.01 -0.34 4.02 0 3 C0 2.01 0 1.02 0 0 Z " fill="#3BA6F7" transform="translate(17,243)"/>
<path d="M0 0 C-0.33 0.99 -0.66 1.98 -1 3 C1.31 3 3.62 3 6 3 C6 3.33 6 3.66 6 4 C4.5629191 4.05422947 3.12524538 4.09289723 1.6875 4.125 C0.88699219 4.14820313 0.08648437 4.17140625 -0.73828125 4.1953125 C-3 4 -3 4 -6 2 C-6 1.34 -6 0.68 -6 0 C-3.50907189 -1.24546405 -2.58919267 -0.7767578 0 0 Z " fill="#3F96CB" transform="translate(79,214)"/>
<path d="M0 0 C1.65 0.33 3.3 0.66 5 1 C3.08864614 4.53600465 1.37357234 6.78972846 -2 9 C-1.855625 8.443125 -1.71125 7.88625 -1.5625 7.3125 C-0.97230872 4.88615805 -0.476571 2.45093655 0 0 Z " fill="#0C2B2F" transform="translate(146,37)"/>
<path d="M0 0 C2.64752004 2.57784846 4.94432065 4.91648098 7 8 C6.625 10.1875 6.625 10.1875 6 12 C5.7525 11.195625 5.505 10.39125 5.25 9.5625 C4.27761141 6.828919 4.27761141 6.828919 1.875 6.1875 C1.25625 6.125625 0.6375 6.06375 0 6 C0 4.02 0 2.04 0 0 Z " fill="#32D5C8" transform="translate(208,20)"/>
<path d="M0 0 C1.32 0.33 2.64 0.66 4 1 C1.03 4.96 1.03 4.96 -2 9 C-2.99 8.67 -3.98 8.34 -5 8 C-4.360625 7.236875 -3.72125 6.47375 -3.0625 5.6875 C-0.85767219 3.11753287 -0.85767219 3.11753287 0 0 Z " fill="#0D203A" transform="translate(116,227)"/>
<path d="M0 0 C0.66 0 1.32 0 2 0 C1.46884894 4.51478398 -0.36620292 7.34666857 -3 11 C-3.6875 9.25 -3.6875 9.25 -4 7 C-2.6875 4.75 -2.6875 4.75 -1 3 C-0.34 3 0.32 3 1 3 C0.67 2.01 0.34 1.02 0 0 Z " fill="#071C33" transform="translate(19,209)"/>
<path d="M0 0 C1.32 0.99 2.64 1.98 4 3 C2.35 4.65 0.7 6.3 -1 8 C-1.625 5.6875 -1.625 5.6875 -2 3 C-1.34 2.01 -0.68 1.02 0 0 Z " fill="#3CA5E3" transform="translate(94,186)"/>
<path d="M0 0 C0.66 0 1.32 0 2 0 C2.06058594 0.66386719 2.12117187 1.32773438 2.18359375 2.01171875 C2.79863507 8.54908081 2.79863507 8.54908081 4 15 C3.34 15 2.68 15 2 15 C0.67770811 12.35541621 0.90322806 10.32238699 0.9375 7.375 C0.94652344 6.37210937 0.95554688 5.36921875 0.96484375 4.3359375 C0.98224609 3.17964844 0.98224609 3.17964844 1 2 C0.34 1.67 -0.32 1.34 -1 1 C-0.67 0.67 -0.34 0.34 0 0 Z " fill="#0B3C4E" transform="translate(165,99)"/>
<path d="M0 0 C3.625 -0.1875 3.625 -0.1875 7 0 C7.33 0.66 7.66 1.32 8 2 C4.52674819 3.1577506 1.63932552 3.06866652 -2 3 C-1.34 2.01 -0.68 1.02 0 0 Z " fill="#0F1619" transform="translate(91,212)"/>
<path d="M0 0 C0.66 0 1.32 0 2 0 C2.33 0.99 2.66 1.98 3 3 C1.68 3 0.36 3 -1 3 C-0.67 2.01 -0.34 1.02 0 0 Z M-2 3 C-1.34 3.99 -0.68 4.98 0 6 C-0.33 6.99 -0.66 7.98 -1 9 C-1.99 8.67 -2.98 8.34 -4 8 C-4 7.01 -4 6.02 -4 5 C-3.34 5 -2.68 5 -2 5 C-2 4.34 -2 3.68 -2 3 Z " fill="#12181D" transform="translate(36,184)"/>
<path d="M0 0 C0.66 0 1.32 0 2 0 C0.75023244 3.65316671 0.32901247 4.78065836 -3 7 C-3 6.01 -3 5.02 -3 4 C-3.66 4 -4.32 4 -5 4 C-5 3.01 -5 2.02 -5 1 C-3.68 1 -2.36 1 -1 1 C-0.67 0.67 -0.34 0.34 0 0 Z " fill="#0B2431" transform="translate(95,109)"/>
<path d="M0 0 C0.66 0.99 1.32 1.98 2 3 C1.34 3 0.68 3 0 3 C-0.2475 3.969375 -0.495 4.93875 -0.75 5.9375 C-1.1625 6.948125 -1.575 7.95875 -2 9 C-4.125 9.875 -4.125 9.875 -6 10 C-4.07119658 6.59244728 -2.1723491 3.25852365 0 0 Z " fill="#3DBDC7" transform="translate(119,80)"/>
<path d="M0 0 C0.99 0 1.98 0 3 0 C1.68775452 3.93673644 0.08089673 6.22719294 -3 9 C-3.33 7.35 -3.66 5.7 -4 4 C-3.34 3.67 -2.68 3.34 -2 3 C-1.34 3.33 -0.68 3.66 0 4 C0 2.68 0 1.36 0 0 Z " fill="#0E3032" transform="translate(154,29)"/>
<path d="M0 0 C0.1875 2.375 0.1875 2.375 0 5 C-0.99 5.66 -1.98 6.32 -3 7 C-4 6 -4 6 -4.0625 3.4375 C-4.041875 2.633125 -4.02125 1.82875 -4 1 C-2 0 -2 0 0 0 Z " fill="#36A0ED" transform="translate(74,250)"/>
<path d="M0 0 C0.99 0.33 1.98 0.66 3 1 C3 1.99 3 2.98 3 4 C2.401875 4.0825 1.80375 4.165 1.1875 4.25 C-1.5966296 5.20455872 -2.43311142 6.57132271 -4 9 C-3.67 7.02 -3.34 5.04 -3 3 C-2.01 3 -1.02 3 0 3 C0 2.01 0 1.02 0 0 Z " fill="#0F1B21" transform="translate(98,190)"/>
<path d="M0 0 C0.99 0.33 1.98 0.66 3 1 C2.01 2.485 2.01 2.485 1 4 C1 5.32 1 6.64 1 8 C0.01 7.67 -0.98 7.34 -2 7 C-2 5.35 -2 3.7 -2 2 C-1.34 2 -0.68 2 0 2 C0 1.34 0 0.68 0 0 Z " fill="#3BD0EC" transform="translate(88,124)"/>
<path d="M0 0 C0.99 0 1.98 0 3 0 C3 1.98 3 3.96 3 6 C2.01 6.33 1.02 6.66 0 7 C-0.93423645 3.98968256 -1.04449911 3.13349732 0 0 Z " fill="#0F1A1E" transform="translate(11,248)"/>
<path d="M0 0 C0.66 0.33 1.32 0.66 2 1 C1.67 2.65 1.34 4.3 1 6 C-0.32 6.33 -1.64 6.66 -3 7 C-2.34 5.68 -1.68 4.36 -1 3 C-1.66 2.67 -2.32 2.34 -3 2 C-2.01 1.34 -1.02 0.68 0 0 Z " fill="#101B29" transform="translate(103,243)"/>
<path d="M0 0 C-0.99 0.495 -0.99 0.495 -2 1 C-2.99 2.485 -2.99 2.485 -4 4 C-5.65 3.67 -7.3 3.34 -9 3 C-5.83583464 -0.30799106 -4.50236011 -1.35070803 0 0 Z " fill="#3AD4BE" transform="translate(179,13)"/>
<path d="M0 0 C1.32 0.33 2.64 0.66 4 1 C4 2.65 4 4.3 4 6 C3.01 6 2.02 6 1 6 C0.67 4.02 0.34 2.04 0 0 Z " fill="#429DE3" transform="translate(98,256)"/>
<path d="M0 0 C2 3 2 3 1.625 5.1875 C1.41875 5.785625 1.2125 6.38375 1 7 C-0.32 7 -1.64 7 -3 7 C-3 3.48283697 -2.17554415 2.62878252 0 0 Z " fill="#103352" transform="translate(98,220)"/>
<path d="M0 0 C0.33 0 0.66 0 1 0 C1 1.65 1 3.3 1 5 C-0.98 5.33 -2.96 5.66 -5 6 C-4.67 4.68 -4.34 3.36 -4 2 C-2.68 2 -1.36 2 0 2 C0 1.34 0 0.68 0 0 Z " fill="#32A9F0" transform="translate(78,208)"/>
<path d="M0 0 C0.33 0.66 0.66 1.32 1 2 C0.22265625 3.7265625 0.22265625 3.7265625 -0.9375 5.625 C-1.618125 6.73875 -2.29875 7.8525 -3 9 C-3.99 8.67 -4.98 8.34 -6 8 C-4.02 5.36 -2.04 2.72 0 0 Z " fill="#0E2849" transform="translate(85,205)"/>
<path d="M0 0 C1.32 0.66 2.64 1.32 4 2 C2.35 3.65 0.7 5.3 -1 7 C-1.625 4.625 -1.625 4.625 -2 2 C-1.34 1.34 -0.68 0.68 0 0 Z " fill="#3EA9D9" transform="translate(124,148)"/>
<path d="M0 0 C1.65 0.33 3.3 0.66 5 1 C5 1.99 5 2.98 5 4 C2.69 4 0.38 4 -2 4 C-1.34 2.68 -0.68 1.36 0 0 Z " fill="#3FB9F6" transform="translate(198,146)"/>
<path d="M0 0 C0.99 0.33 1.98 0.66 3 1 C2.02471263 2.33617352 1.04466681 3.6688751 0.0625 5 C-0.48277344 5.7425 -1.02804688 6.485 -1.58984375 7.25 C-2.28787109 8.11625 -2.28787109 8.11625 -3 9 C-3.33 9 -3.66 9 -4 9 C-4.25 6.75 -4.25 6.75 -4 4 C-2 1.6875 -2 1.6875 0 0 Z " fill="#0B2940" transform="translate(87,120)"/>
<path d="M0 0 C3.37503669 1.1858237 5.64722731 2.27573689 8 5 C6.02 5 4.04 5 2 5 C1.34 3.35 0.68 1.7 0 0 Z " fill="#2EDBC7" transform="translate(199,13)"/>
<path d="M0 0 C0.33 0.66 0.66 1.32 1 2 C0.67 2.99 0.34 3.98 0 5 C-1.65 5.33 -3.3 5.66 -5 6 C-3.63016497 2.83884224 -3.0109362 2.0072908 0 0 Z " fill="#151C22" transform="translate(98,250)"/>
<path d="M0 0 C0.66 0 1.32 0 2 0 C0.54744301 3.82946843 -1.42895561 5.12050295 -5 7 C-4.67 5.68 -4.34 4.36 -4 3 C-2.68 2.67 -1.36 2.34 0 2 C0 1.34 0 0.68 0 0 Z " fill="#46B5F4" transform="translate(37,194)"/>
<path d="M0 0 C2.475 0.495 2.475 0.495 5 1 C4.1875 2.9375 4.1875 2.9375 3 5 C2.01 5.33 1.02 5.66 0 6 C0 4.02 0 2.04 0 0 Z " fill="#3EBEF4" transform="translate(64,156)"/>
<path d="M0 0 C0.598125 0.350625 1.19625 0.70125 1.8125 1.0625 C1.8125 2.3825 1.8125 3.7025 1.8125 5.0625 C-1.07187779 3.76950306 -3.05969421 2.40308637 -5.1875 0.0625 C-2.1875 -0.9375 -2.1875 -0.9375 0 0 Z " fill="#3EBAD5" transform="translate(178.1875,118.9375)"/>
<path d="M0 0 C0.33 1.32 0.66 2.64 1 4 C-0.4375 6.25 -0.4375 6.25 -2 8 C-2.99 7.67 -3.98 7.34 -5 7 C-3.35 4.69 -1.7 2.38 0 0 Z " fill="#3DCBBE" transform="translate(162,22)"/>
<path d="M0 0 C0.99 0.33 1.98 0.66 3 1 C2.54625 1.5775 2.0925 2.155 1.625 2.75 C0.15886484 4.7800333 -0.94857784 6.73539843 -2 9 C-2.33 7.35 -2.66 5.7 -3 4 C-2.34 4 -1.68 4 -1 4 C-0.67 2.68 -0.34 1.36 0 0 Z " fill="#0A1F3F" transform="translate(99,251)"/>
<path d="M0 0 C0.33 1.32 0.66 2.64 1 4 C0.01 4.495 0.01 4.495 -1 5 C-1.33 5.99 -1.66 6.98 -2 8 C-2.99 8 -3.98 8 -5 8 C-3.62845496 5.04590299 -2.01136276 2.55991624 0 0 Z " fill="#4D9FD3" transform="translate(24,208)"/>
<path d="M0 0 C2.20160819 4.40321639 2 7.22906068 2 12 C1.34 12 0.68 12 0 12 C0 8.04 0 4.08 0 0 Z " fill="#39A8F8" transform="translate(169,203)"/>
<path d="M0 0 C0 3.11227195 -0.45627049 5.94152152 -1 9 C-1.99 9 -2.98 9 -4 9 C-3.46930939 5.17902761 -2.50298434 2.93828597 0 0 Z " fill="#3FB8F5" transform="translate(44,184)"/>
<path d="M0 0 C2.97 0.495 2.97 0.495 6 1 C5.67 1.99 5.34 2.98 5 4 C3.02 4 1.04 4 -1 4 C-0.67 2.68 -0.34 1.36 0 0 Z " fill="#131921" transform="translate(182,138)"/>
<path d="M0 0 C0 0.99 0 1.98 0 3 C-0.99 3 -1.98 3 -3 3 C-3 3.99 -3 4.98 -3 6 C-3.99 5.67 -4.98 5.34 -6 5 C-5.6875 3.0625 -5.6875 3.0625 -5 1 C-2 0 -2 0 0 0 Z " fill="#151925" transform="translate(83,126)"/>
<path d="M0 0 C2 3 2 3 2 5 C0.02 5.33 -1.96 5.66 -4 6 C-3.0022242 3.00667261 -2.2477975 2.05233685 0 0 Z " fill="#2BD7E2" transform="translate(123,86)"/>
<path d="M0 0 C0.66 0.33 1.32 0.66 2 1 C2.33 1.99 2.66 2.98 3 4 C1.35 4.33 -0.3 4.66 -2 5 C-2 3.68 -2 2.36 -2 1 C-1.34 0.67 -0.68 0.34 0 0 Z " fill="#2FE3E0" transform="translate(135,61)"/>
<path d="M0 0 C3.26954202 0.56371414 4.82575883 1.49962266 7 4 C6.67 4.99 6.34 5.98 6 7 C1.125 2.25 1.125 2.25 0 0 Z " fill="#103944" transform="translate(207,18)"/>
<path d="M0 0 C0.66 0 1.32 0 2 0 C2 1.32 2 2.64 2 4 C2.66 4 3.32 4 4 4 C4 4.66 4 5.32 4 6 C2.02 5.34 0.04 4.68 -2 4 C-1.34 2.68 -0.68 1.36 0 0 Z " fill="#18201D" transform="translate(72,260)"/>
<path d="M0 0 C1.32 0 2.64 0 4 0 C4 0.66 4 1.32 4 2 C3.34 2 2.68 2 2 2 C2 2.99 2 3.98 2 5 C1.01 5 0.02 5 -1 5 C-0.67 3.35 -0.34 1.7 0 0 Z " fill="#131B20" transform="translate(120,219)"/>
<path d="M0 0 C0.33 0.66 0.66 1.32 1 2 C0.06553465 4.03144641 -0.93224776 6.03533587 -2 8 C-2.99 7.67 -3.98 7.34 -5 7 C-3.35 4.69 -1.7 2.38 0 0 Z " fill="#0E3350" transform="translate(112,169)"/>
<path d="M0 0 C1.0625 1.8125 1.0625 1.8125 2 4 C1.67 4.99 1.34 5.98 1 7 C0.01 6.67 -0.98 6.34 -2 6 C-1.125 1.125 -1.125 1.125 0 0 Z " fill="#0C2434" transform="translate(140,132)"/>
<path d="M0 0 C0.99 0.495 0.99 0.495 2 1 C1.01 1.495 1.01 1.495 0 2 C0 1.34 0 0.68 0 0 Z M-7 2 C-4.69 2 -2.38 2 0 2 C-0.99 3.485 -0.99 3.485 -2 5 C-2.99 5 -3.98 5 -5 5 C-5 4.34 -5 3.68 -5 3 C-5.66 2.67 -6.32 2.34 -7 2 Z " fill="#161B23" transform="translate(197,128)"/>
<path d="M0 0 C0.66 0 1.32 0 2 0 C2 1.32 2 2.64 2 4 C0.35 4.66 -1.3 5.32 -3 6 C-1.125 1.125 -1.125 1.125 0 0 Z " fill="#34DBED" transform="translate(110,96)"/>
<path d="M0 0 C0.99 0 1.98 0 3 0 C3.33 1.32 3.66 2.64 4 4 C2.68 4.33 1.36 4.66 0 5 C-0.33 4.01 -0.66 3.02 -1 2 C-0.67 1.34 -0.34 0.68 0 0 Z " fill="#27F3DF" transform="translate(163,24)"/>
</svg>
